<?xml version="1.0" encoding="UTF-8"?>
<svg id="Layer_2" data-name="Layer 2" xmlns="http://www.w3.org/2000/svg" viewBox="0 0 250 250">
  <defs>
    <style>
      .cls-1 {
        fill: #e6e6e675;
        stroke-width: 0px;
      }
    </style>
  </defs>
  <g id="Layer_1-2" data-name="Layer 1">
    <g>
      <path class="cls-1" d="m125,0C56.07,0,0,56.08,0,125s56.07,125,125,125,125-56.08,125-125S193.93,0,125,0Zm0,232.34c-59.19,0-107.34-48.15-107.34-107.34S65.81,17.66,125,17.66s107.34,48.15,107.34,107.34-48.15,107.34-107.34,107.34Z"/>
      <path class="cls-1" d="m124.02,174.6c-9.48,0-17.19,7.88-17.19,17.56s7.71,17.56,17.19,17.56,17.19-7.88,17.19-17.56-7.71-17.56-17.19-17.56Z"/>
      <path class="cls-1" d="m126.68,39.29c-23.31,0-42.86,17.66-45.79,41.21-2.28,1.2-3.75,3.62-3.75,6.27v7.2c0,3.89,3.11,7.06,6.93,7.06h13.78c3.82,0,6.93-3.17,6.93-7.06v-7.2c0-2.27-1.06-4.36-2.82-5.68,2.45-11.92,12.7-20.48,24.72-20.48,15.71,0,24.92,15.52,25.27,26.25.14,4.21-1.18,8.89-3.71,13.17-2.65,4.48-5.55,6.29-9.95,9.03-4.32,2.69-9.22,5.75-13.91,11.57-7.39,9.18-11,21.5-10.73,36.61l.07,3.68c6.95.02,13.89.03,20.84.05-.03-.98-.05-2.38-.02-4.07.1-5.01.17-8.97,1.41-13.31.63-2.2,1.71-5.85,4.58-9.44,1.13-1.41,1.66-2.55,8.66-6.92,5.46-3.4,11.64-7.26,16.93-16.18,4.61-7.77,6.99-16.62,6.71-24.92-.66-19.64-17.06-46.84-46.16-46.84Z"/>
    </g>
  </g>
</svg>